<?xml version="1.0" encoding="UTF-8" standalone="no"?>
<!-- Created with Inkscape (http://www.inkscape.org/) -->

<svg
   xmlns:dc="http://purl.org/dc/elements/1.1/"
   xmlns:cc="http://creativecommons.org/ns#"
   xmlns:rdf="http://www.w3.org/1999/02/22-rdf-syntax-ns#"
   xmlns:svg="http://www.w3.org/2000/svg"
   xmlns="http://www.w3.org/2000/svg"
   xmlns:xlink="http://www.w3.org/1999/xlink"
   xmlns:inkscape="http://www.inkscape.org/namespaces/inkscape"
   version="1.1"
   width="64"
   height="64"
   viewBox="0 0 64 64"
   id="Layer_1"
   xml:space="preserve"><metadata
   id="metadata8156"><rdf:RDF><cc:Work
       rdf:about=""><dc:format>image/svg+xml</dc:format><dc:type
         rdf:resource="http://purl.org/dc/dcmitype/StillImage" /><dc:title></dc:title></cc:Work></rdf:RDF></metadata><defs
   id="defs8154"><inkscape:path-effect
     effect="spiro"
     id="path-effect7595" /><inkscape:path-effect
     effect="spiro"
     id="path-effect7591" /><inkscape:path-effect
     effect="spiro"
     id="path-effect7587" /><inkscape:path-effect
     effect="spiro"
     id="path-effect7583" /><inkscape:path-effect
     effect="spiro"
     id="path-effect7579" /><inkscape:path-effect
     effect="skeletal"
     id="path-effect7575" /><inkscape:path-effect
     effect="spiro"
     id="path-effect7573" /><inkscape:path-effect
     effect="spiro"
     id="path-effect7563" /><marker
     refX="0"
     refY="0"
     orient="auto"
     id="TriangleInM"
     style="overflow:visible"><path
       d="m 5.77,0 -8.65,5 0,-10 8.65,5 z"
       transform="scale(-0.4,-0.4)"
       id="path3961"
       style="fill-rule:evenodd;stroke:#000000;stroke-width:1pt;marker-start:none" /></marker><marker
     refX="0"
     refY="0"
     orient="auto"
     id="Tail"
     style="overflow:visible"><g
       transform="scale(-1.2,-1.2)"
       id="g3860"><path
         d="M -3.8048674,-3.9585227 0.54352094,0"
         id="path3862"
         style="fill:none;stroke:#000000;stroke-width:0.80000001;stroke-linecap:round;marker-start:none;marker-end:none" /><path
         d="M -1.2866832,-3.9585227 3.0617053,0"
         id="path3864"
         style="fill:none;stroke:#000000;stroke-width:0.80000001;stroke-linecap:round;marker-start:none;marker-end:none" /><path
         d="M 1.3053582,-3.9585227 5.6537466,0"
         id="path3866"
         style="fill:none;stroke:#000000;stroke-width:0.80000001;stroke-linecap:round;marker-start:none;marker-end:none" /><path
         d="M -3.8048674,4.1775838 0.54352094,0.21974226"
         id="path3868"
         style="fill:none;stroke:#000000;stroke-width:0.80000001;stroke-linecap:round;marker-start:none;marker-end:none" /><path
         d="M -1.2866832,4.1775838 3.0617053,0.21974226"
         id="path3870"
         style="fill:none;stroke:#000000;stroke-width:0.80000001;stroke-linecap:round;marker-start:none;marker-end:none" /><path
         d="M 1.3053582,4.1775838 5.6537466,0.21974226"
         id="path3872"
         style="fill:none;stroke:#000000;stroke-width:0.80000001;stroke-linecap:round;marker-start:none;marker-end:none" /></g></marker><marker
     refX="0"
     refY="0"
     orient="auto"
     id="Arrow1Sstart"
     style="overflow:visible"><path
       d="M 0,0 5,-5 -12.5,0 5,5 0,0 z"
       transform="matrix(0.2,0,0,0.2,1.2,0)"
       id="path3836"
       style="fill-rule:evenodd;stroke:#000000;stroke-width:1pt;marker-start:none" /></marker><marker
     refX="0"
     refY="0"
     orient="auto"
     id="Arrow2Mstart"
     style="overflow:visible"><path
       d="M 8.7185878,4.0337352 -2.2072895,0.01601326 8.7185884,-4.0017078 c -1.7454984,2.3720609 -1.7354408,5.6174519 -6e-7,8.035443 z"
       transform="scale(0.6,0.6)"
       id="path3848"
       style="font-size:12px;fill-rule:evenodd;stroke-width:0.625;stroke-linejoin:round" /></marker><marker
     refX="0"
     refY="0"
     orient="auto"
     id="Arrow1Lstart"
     style="overflow:visible"><path
       d="M 0,0 5,-5 -12.5,0 5,5 0,0 z"
       transform="matrix(0.8,0,0,0.8,10,0)"
       id="path3824"
       style="fill-rule:evenodd;stroke:#000000;stroke-width:1pt;marker-start:none" /></marker><marker
     refX="0"
     refY="0"
     orient="auto"
     id="Arrow2Lstart"
     style="overflow:visible"><path
       d="M 8.7185878,4.0337352 -2.2072895,0.01601326 8.7185884,-4.0017078 c -1.7454984,2.3720609 -1.7354408,5.6174519 -6e-7,8.035443 z"
       transform="matrix(1.1,0,0,1.1,1.1,0)"
       id="path3842"
       style="font-size:12px;fill-rule:evenodd;stroke-width:0.625;stroke-linejoin:round" /></marker><marker
     refX="0"
     refY="0"
     orient="auto"
     id="Arrow1Mstart"
     style="overflow:visible"><path
       d="M 0,0 5,-5 -12.5,0 5,5 0,0 z"
       transform="matrix(0.4,0,0,0.4,4,0)"
       id="path3830"
       style="fill-rule:evenodd;stroke:#000000;stroke-width:1pt;marker-start:none" /></marker><marker
     refX="0"
     refY="0"
     orient="auto"
     id="Arrow1Lend"
     style="overflow:visible"><path
       d="M 0,0 5,-5 -12.5,0 5,5 0,0 z"
       transform="matrix(-0.8,0,0,-0.8,-10,0)"
       id="path3827"
       style="fill-rule:evenodd;stroke:#000000;stroke-width:1pt;marker-start:none" /></marker><inkscape:path-effect
     effect="skeletal"
     id="path-effect3051" /><inkscape:path-effect
     effect="spiro"
     id="path-effect3049" /><inkscape:path-effect
     effect="skeletal"
     id="path-effect3045" /><inkscape:path-effect
     effect="spiro"
     id="path-effect3043" /><inkscape:path-effect
     effect="skeletal"
     id="path-effect3039" /><linearGradient
     id="linearGradient3829"><stop
       id="stop3831"
       style="stop-color:#0036ff;stop-opacity:1"
       offset="0" /><stop
       id="stop3833"
       style="stop-color:#000000;stop-opacity:1"
       offset="1" /></linearGradient><linearGradient
     x1="131.5"
     y1="222.5"
     x2="210.5"
     y2="276.5"
     id="linearGradient3835"
     xlink:href="#linearGradient3829"
     gradientUnits="userSpaceOnUse" /><linearGradient
     x1="234.2803"
     y1="358.45901"
     x2="239.1073"
     y2="491.66159"
     id="SVGID_16_"
     gradientUnits="userSpaceOnUse"
     gradientTransform="matrix(0.62827903,0,0,0.62827903,92.822952,22.225755)"><stop
       id="stop182"
       style="stop-color:#ecefcb;stop-opacity:1"
       offset="0" /><stop
       id="stop184"
       style="stop-color:#b7ba91;stop-opacity:1"
       offset="1" /></linearGradient><linearGradient
     x1="209.4111"
     y1="493.68851"
     x2="245.3712"
     y2="206.0153"
     id="SVGID_15_"
     gradientUnits="userSpaceOnUse"><stop
       id="stop165"
       style="stop-color:#e5802a;stop-opacity:1"
       offset="0" /><stop
       id="stop167"
       style="stop-color:#ebd300;stop-opacity:1"
       offset="1" /></linearGradient><radialGradient
     cx="234.89751"
     cy="141.2471"
     r="14.0725"
     id="SVGID_14_"
     gradientUnits="userSpaceOnUse"
     gradientTransform="matrix(0.76656324,0.05937237,-0.05937237,0.76656324,73.19118,-25.293375)"><stop
       id="stop140"
       style="stop-color:#ffffff;stop-opacity:1"
       offset="0.0121" /><stop
       id="stop142"
       style="stop-color:#c3c3c3;stop-opacity:1"
       offset="1" /></radialGradient><linearGradient
     x1="247.0732"
     y1="160.957"
     x2="252.0761"
     y2="139.6413"
     id="SVGID_13_"
     gradientUnits="userSpaceOnUse"
     gradientTransform="matrix(0.62758792,0.02946629,-0.02946629,0.62758792,101.82845,15.024044)"><stop
       id="stop129"
       style="stop-color:#2e2b22;stop-opacity:1"
       offset="0" /><stop
       id="stop131"
       style="stop-color:#5c636a;stop-opacity:1"
       offset="1" /></linearGradient><linearGradient
     x1="245.5479"
     y1="162.3564"
     x2="248.2691"
     y2="134.64571"
     id="SVGID_12_"
     gradientUnits="userSpaceOnUse"
     gradientTransform="matrix(0.62639419,0.04850314,-0.04850314,0.62639419,104.75711,10.760354)"><stop
       id="stop120"
       style="stop-color:#e5802a;stop-opacity:1"
       offset="0" /><stop
       id="stop122"
       style="stop-color:#ebd300;stop-opacity:1"
       offset="1" /></linearGradient><radialGradient
     cx="270.31451"
     cy="149.873"
     r="15.2679"
     id="SVGID_11_"
     gradientUnits="userSpaceOnUse"
     gradientTransform="matrix(1.2151,0.1452,-0.1452,1.2151,-21.514,-87.9268)"><stop
       id="stop107"
       style="stop-color:#ffffff;stop-opacity:1"
       offset="0.0121" /><stop
       id="stop109"
       style="stop-color:#c3c3c3;stop-opacity:1"
       offset="1" /></radialGradient><linearGradient
     x1="243.02251"
     y1="175.77541"
     x2="245.8082"
     y2="150.0024"
     id="SVGID_10_"
     gradientUnits="userSpaceOnUse"
     gradientTransform="matrix(0.62639419,0.04850314,-0.04850314,0.62639419,104.75711,10.760354)"><stop
       id="stop98"
       style="stop-color:#ffffff;stop-opacity:1"
       offset="0" /><stop
       id="stop100"
       style="stop-color:#c3c3c3;stop-opacity:1"
       offset="1" /></linearGradient><linearGradient
     x1="236.62601"
     y1="230.0264"
     x2="242.2308"
     y2="166.0127"
     id="SVGID_9_"
     gradientUnits="userSpaceOnUse"
     gradientTransform="matrix(0.62639419,0.04850314,-0.04850314,0.62639419,104.75711,10.760354)"><stop
       id="stop87"
       style="stop-color:#e5802a;stop-opacity:1"
       offset="0" /><stop
       id="stop89"
       style="stop-color:#ebd300;stop-opacity:1"
       offset="1" /></linearGradient><linearGradient
     x1="240.2197"
     y1="276.25201"
     x2="240.2197"
     y2="127.5594"
     id="SVGID_8_"
     gradientUnits="userSpaceOnUse"
     gradientTransform="matrix(0.62639419,0.04850314,-0.04850314,0.62639419,104.75711,10.760354)"><stop
       id="stop80"
       style="stop-color:#e5802a;stop-opacity:1"
       offset="0" /><stop
       id="stop82"
       style="stop-color:#ebd300;stop-opacity:1"
       offset="1" /></linearGradient><linearGradient
     x1="232.99899"
     y1="422.90039"
     x2="232.99899"
     y2="127.0979"
     id="SVGID_7_"
     gradientUnits="userSpaceOnUse"
     gradientTransform="matrix(0.62827903,0,0,0.62827903,92.822952,22.225755)"><stop
       id="stop63"
       style="stop-color:#e5802a;stop-opacity:1"
       offset="0" /><stop
       id="stop65"
       style="stop-color:#ebd300;stop-opacity:1"
       offset="1" /></linearGradient><linearGradient
     x1="404.5"
     y1="265.7305"
     x2="401.81091"
     y2="226.11189"
     id="SVGID_6_"
     gradientUnits="userSpaceOnUse"
     gradientTransform="matrix(-0.6077343,-0.15933156,-0.15933156,0.6077343,438.78863,67.038196)"><stop
       id="stop54"
       style="stop-color:#e5802a;stop-opacity:1"
       offset="0" /><stop
       id="stop56"
       style="stop-color:#ebd300;stop-opacity:1"
       offset="1" /></linearGradient><linearGradient
     x1="374.94531"
     y1="280.082"
     x2="368.97961"
     y2="192.1873"
     id="SVGID_5_"
     gradientUnits="userSpaceOnUse"
     gradientTransform="matrix(-0.6077343,-0.15933156,-0.15933156,0.6077343,438.78863,67.038196)"><stop
       id="stop47"
       style="stop-color:#e5802a;stop-opacity:1"
       offset="0" /><stop
       id="stop49"
       style="stop-color:#ebd300;stop-opacity:1"
       offset="1" /></linearGradient><linearGradient
     x1="391.02051"
     y1="266.43259"
     x2="388.33151"
     y2="226.8148"
     id="SVGID_4_"
     gradientUnits="userSpaceOnUse"
     gradientTransform="matrix(0.62639419,0.04850314,-0.04850314,0.62639419,104.75711,10.760354)"><stop
       id="stop38"
       style="stop-color:#e5802a;stop-opacity:1"
       offset="0" /><stop
       id="stop40"
       style="stop-color:#ebd300;stop-opacity:1"
       offset="1" /></linearGradient><linearGradient
     x1="361.46481"
     y1="280.78519"
     x2="355.49921"
     y2="192.8913"
     id="SVGID_3_"
     gradientUnits="userSpaceOnUse"
     gradientTransform="matrix(0.62639419,0.04850314,-0.04850314,0.62639419,104.75711,10.760354)"><stop
       id="stop31"
       style="stop-color:#e5802a;stop-opacity:1"
       offset="0" /><stop
       id="stop33"
       style="stop-color:#ebd300;stop-opacity:1"
       offset="1" /></linearGradient><linearGradient
     x1="102.3818"
     y1="438.63959"
     x2="102.3818"
     y2="377.16479"
     id="SVGID_2_"
     gradientUnits="userSpaceOnUse"
     gradientTransform="matrix(-0.54641427,0.3100557,0.3100557,0.54641427,258.73794,16.304037)"><stop
       id="stop24"
       style="stop-color:#e5802a;stop-opacity:1"
       offset="0" /><stop
       id="stop26"
       style="stop-color:#ebd300;stop-opacity:1"
       offset="1" /></linearGradient><linearGradient
     x1="130.4951"
     y1="457.78421"
     x2="130.4951"
     y2="396.31049"
     id="SVGID_1_"
     gradientUnits="userSpaceOnUse"><stop
       id="stop17"
       style="stop-color:#e5802a;stop-opacity:1"
       offset="0" /><stop
       id="stop19"
       style="stop-color:#ebd300;stop-opacity:1"
       offset="1" /></linearGradient><linearGradient
     x1="130.4951"
     y1="457.78421"
     x2="130.4951"
     y2="396.31049"
     id="linearGradient4039"
     xlink:href="#SVGID_1_"
     gradientUnits="userSpaceOnUse"
     gradientTransform="matrix(0.62827903,0,0,0.62827903,92.822952,22.225755)" /></defs>
<g
   transform="translate(0,-436)"
   id="max_width__x2F__height"
   style="display:none">
	<path
   d="M 499.001,1 V 499 H 1 V 1 h 498.001 m 1,-1 H 0 V 500 H 500.001 V 0 l 0,0 z"
   id="path8137"
   style="display:inline" />
</g>

<path
   d="m 10,0 44,0 c 5.54,0 10,4.46 10,10 l 0,44 c 0,5.54 -4.46,10 -10,10 L 10,64 C 4.46,64 0,59.54 0,54 L 0,10 C 0,4.46 4.46,0 10,0 z"
   id="rect3543"
   style="fill:#a9a9a9;fill-opacity:1;stroke:none" /><path
   d="m 30,50.5 a 10.125,10.25 0 1 1 -20.25,0 10.125,10.25 0 1 1 20.25,0 z"
   transform="translate(-0.75,-6.25)"
   id="path3081"
   style="fill:#eeeeec;fill-opacity:1;fill-rule:evenodd" /><path
   d="m 30,50.5 a 10.125,10.25 0 1 1 -20.25,0 10.125,10.25 0 1 1 20.25,0 z"
   transform="translate(23,-26.75)"
   id="path3083"
   style="fill:#eeeeec;fill-opacity:1;fill-rule:evenodd" /><rect
   width="21.25"
   height="6.25"
   x="-5.4328432"
   y="42.926033"
   transform="matrix(0.8028197,-0.59622188,0.59622188,0.8028197,0,0)"
   id="rect3087"
   style="fill:#2e3436;fill-opacity:1;fill-rule:evenodd" /><path
   d="M 16.060324,53.878201 C 13.461671,53.0509 10.84084,50.491904 9.7848594,47.750796 9.0408335,45.819458 9.0497431,42.663217 9.8047973,40.687775 c 1.1171377,-2.922759 4.0486157,-5.573333 6.8597647,-6.20244 2.069425,-0.463118 4.761097,-0.210888 6.577844,0.616392 0.852105,0.388018 1.741416,0.917793 1.976247,1.177278 0.415654,0.459293 0.363022,0.471791 -1.986782,0.471791 l -2.413747,0 0,3.125 0,3.125 4.125,0 4.125,0 0,1.352726 c 0,3.745821 -2.284745,7.317363 -5.75,8.988476 -1.402544,0.676375 -1.933016,0.791401 -3.875,0.840246 -1.420893,0.03574 -2.667428,-0.0763 -3.3828,-0.304043 z"
   id="path3089"
   style="fill:#2e3436;fill-opacity:1;fill-rule:evenodd" /><path
   d="M 39.810324,33.378201 C 37.211671,32.5509 34.59084,29.991904 33.534859,27.250796 c -0.744026,-1.931338 -0.735116,-5.087579 0.01994,-7.063021 1.117138,-2.922759 4.048616,-5.573333 6.859765,-6.20244 2.179072,-0.487655 4.769275,-0.223132 6.653562,0.679493 7.641525,3.660498 7.641525,14.492059 0,18.17717 -1.402544,0.676375 -1.933016,0.791401 -3.875,0.840246 -1.420893,0.03574 -2.667428,-0.0763 -3.3828,-0.304043 z"
   id="path3091"
   style="fill:#2e3436;fill-opacity:1;fill-rule:evenodd" /><path
   d="m 16.085955,53.709526 c -1.828047,-0.525008 -4.61217,-2.97814 -5.637245,-4.967063 -1.3681063,-2.654492 -1.3696172,-6.299882 -0.0037,-8.995335 0.847754,-1.67296 2.790605,-3.541137 4.647866,-4.469221 1.358619,-0.67891 1.812887,-0.777111 3.594831,-0.777111 1.949218,0 4.397922,0.509215 5.064367,1.05315 0.409169,0.333952 10.214215,-6.947725 10.142578,-7.532344 -0.02668,-0.217693 -0.240305,-1.177158 -0.474731,-2.132145 -0.800382,-3.260538 0.180679,-6.6473 2.637131,-9.103752 0.685457,-0.685456 1.976437,-1.605738 2.868847,-2.045069 1.555778,-0.765907 1.723293,-0.794567 4.069908,-0.696304 1.973795,0.08265 2.72395,0.230092 3.876862,0.761987 1.987403,0.916885 3.78086,2.673725 4.760163,4.66297 0.758425,1.540581 0.81032,1.814776 0.81032,4.281507 0,2.466731 -0.05189,2.740926 -0.81032,4.281507 -1.01024,2.052087 -2.79869,3.765889 -4.945935,4.739497 -1.365288,0.619051 -1.92309,0.728996 -3.698523,0.728996 -1.149917,0 -2.643012,-0.167532 -3.31799,-0.372294 -0.674977,-0.204762 -1.29295,-0.373512 -1.373272,-0.375 -0.08032,-0.0015 -3.105745,2.189113 -6.723165,4.868002 l -6.577125,4.870709 -1.714335,-2.28904 c -0.942884,-1.25897 -1.714335,-2.368316 -1.714335,-2.465214 0,-0.0969 0.253125,-0.352748 0.5625,-0.568557 0.554997,-0.387147 0.549996,-0.392555 -0.375,-0.405493 l -0.9375,-0.01311 0,3.125 0,3.125 4.142989,0 4.142989,0 -0.165294,1.4375 c -0.356233,3.098027 -0.956573,4.519772 -2.751479,6.51614 -0.810162,0.901095 -1.729766,1.571237 -2.983875,2.17444 -1.671437,0.80393 -1.986201,0.870162 -4.036563,0.849372 -1.223072,-0.0124 -2.609493,-0.133325 -3.080936,-0.268722 l 0,0 z"
   id="path3093"
   style="fill:#2e3436;fill-opacity:1;fill-rule:evenodd" /><path
   d="M 16.085955,53.709526 C 14.248891,53.181928 11.472969,50.730073 10.437629,48.720596 10.110273,48.085238 9.7050208,46.819613 9.5370674,45.908096 8.7498,41.635443 11.004867,37.320695 15.092848,35.277907 c 1.354696,-0.67695 1.815825,-0.777213 3.577706,-0.777903 1.337916,-5.25e-4 2.631846,0.179791 3.822461,0.532675 l 1.799891,0.533467 2.950109,-2.158741 c 4.959073,-3.628799 6.702671,-5.052794 6.642806,-5.42517 -0.03152,-0.196042 -0.249624,-1.181782 -0.484684,-2.190535 -0.767615,-3.294197 0.189449,-6.539556 2.655887,-9.005995 0.685457,-0.685456 1.976437,-1.605738 2.868847,-2.045069 1.555778,-0.765907 1.723293,-0.794567 4.069908,-0.696304 1.973795,0.08265 2.72395,0.230092 3.876862,0.761987 1.987403,0.916885 3.78086,2.673725 4.760163,4.66297 0.758425,1.540581 0.81032,1.814776 0.81032,4.281507 0,2.466731 -0.05189,2.740926 -0.81032,4.281507 -1.01024,2.052087 -2.79869,3.765889 -4.945935,4.739497 -1.364175,0.618547 -1.92368,0.728996 -3.69288,0.728996 -1.15272,0 -2.66684,-0.172754 -3.38603,-0.38633 -0.715503,-0.212482 -1.439048,-0.301468 -1.607875,-0.197746 -0.168828,0.103721 -3.16219,2.302566 -6.651916,4.886323 l -6.344957,4.697738 -1.717543,-2.293323 c -0.944649,-1.261327 -1.717544,-2.372601 -1.717544,-2.469499 0,-0.0969 0.253125,-0.352748 0.5625,-0.568557 0.554997,-0.387147 0.549996,-0.392555 -0.375,-0.405493 l -0.9375,-0.01311 0,3.125 0,3.125 4.125,0 c 4.696008,0 4.302824,-0.254653 3.85999,2.5 -0.558091,3.471617 -2.522968,6.14825 -5.59966,7.62808 -1.671437,0.80393 -1.986201,0.870162 -4.036563,0.849372 -1.223072,-0.0124 -2.609493,-0.133325 -3.080936,-0.268722 l 0,0 z"
   id="path3095"
   style="fill:#2e3436;fill-opacity:1;fill-rule:evenodd" /><path
   d="m 20.818124,40.000796 c 0,-2.920562 0.0145,-3 0.547782,-3 0.520661,0 0.52497,0.01668 0.08702,0.336916 -0.431079,0.315212 -0.336944,0.500409 1.461353,2.874999 1.057162,1.395947 1.992154,2.538085 2.07776,2.538085 0.08561,0 0.72837,-0.428989 1.428365,-0.95331 0.699994,-0.52432 1.413553,-1.037339 1.585685,-1.140043 0.311637,-0.18594 0.620974,0.370073 0.962138,1.729379 l 0.154098,0.613974 -4.152102,0 -4.152102,0 0,-3 z"
   id="path3097"
   style="fill:#2e3436;fill-opacity:1;fill-rule:evenodd" /><path
   d="M 16.085955,53.709526 C 14.248891,53.181928 11.472969,50.730073 10.437629,48.720596 10.110273,48.085238 9.7050208,46.819613 9.5370674,45.908096 8.7498,41.635443 11.004867,37.320695 15.092848,35.277907 c 1.354696,-0.67695 1.815825,-0.777213 3.577706,-0.777903 1.337818,-5.25e-4 2.631839,0.179789 3.822185,0.532593 l 1.799615,0.533385 3.950385,-2.916394 c 2.172712,-1.604017 4.333813,-3.233441 4.802448,-3.620942 l 0.852062,-0.704549 -0.460137,-2.192632 c -0.396819,-1.890909 -0.419333,-2.430586 -0.163611,-3.92184 0.163089,-0.951063 0.575685,-2.280103 0.916883,-2.953421 0.866217,-1.709399 2.820282,-3.572716 4.735487,-4.515568 1.555778,-0.765907 1.723293,-0.794567 4.069908,-0.696304 1.973795,0.08265 2.72395,0.230092 3.876862,0.761987 1.987403,0.916885 3.78086,2.673725 4.760163,4.66297 0.758425,1.540581 0.81032,1.814776 0.81032,4.281507 0,2.466731 -0.05189,2.740926 -0.81032,4.281507 -1.01024,2.052087 -2.79869,3.765889 -4.945935,4.739497 -1.364175,0.618547 -1.92368,0.728996 -3.69288,0.728996 -1.153915,0 -2.666868,-0.172763 -3.387763,-0.386845 -1.53734,-0.456541 -0.43772,-1.094757 -8.757711,5.082937 -3.214534,2.38683 -5.925981,4.247265 -6.025436,4.1343 -0.268932,-0.305462 -2.873388,-3.900515 -3.116751,-4.302196 -0.142566,-0.235312 -0.01772,-0.49473 0.388341,-0.806941 l 0.598455,-0.460137 -0.9375,-0.0056 -0.9375,-0.0056 0.04368,1.6875 c 0.03232,1.248707 0.06878,1.406725 0.14022,0.607692 l 0.09654,-1.079806 1.456609,1.954806 c 0.801135,1.075145 1.692699,2.167683 1.981253,2.427863 0.516483,0.465697 0.539283,0.463437 1.465671,-0.145223 0.517565,-0.340052 1.239447,-0.811812 1.604183,-1.048357 l 0.663156,-0.430078 0.426549,1.284218 c 0.367515,1.106485 0.387275,1.548277 0.142775,3.19218 -0.551381,3.707227 -2.400412,6.329122 -5.588122,7.92387 -1.633166,0.81704 -1.901464,0.873832 -4.028603,0.852787 -1.253401,-0.0124 -2.664637,-0.133325 -3.13608,-0.268722 l 0,0 z"
   id="path3099"
   style="fill:#2e3436;fill-opacity:1;fill-rule:evenodd" /></svg>