<?xml version="1.0" encoding="UTF-8" standalone="no"?>
<!-- Generator: Adobe Illustrator 13.0.0, SVG Export Plug-In . SVG Version: 6.00 Build 14948)  -->

<svg
   xmlns:dc="http://purl.org/dc/elements/1.1/"
   xmlns:cc="http://creativecommons.org/ns#"
   xmlns:rdf="http://www.w3.org/1999/02/22-rdf-syntax-ns#"
   xmlns:svg="http://www.w3.org/2000/svg"
   xmlns="http://www.w3.org/2000/svg"
   xmlns:xlink="http://www.w3.org/1999/xlink"
   xmlns:sodipodi="http://sodipodi.sourceforge.net/DTD/sodipodi-0.dtd"
   xmlns:inkscape="http://www.inkscape.org/namespaces/inkscape"
   version="1.1"
   id="Layer_1"
   x="0px"
   y="0px"
   width="64"
   height="64"
   viewBox="0 0 64 64"
   enable-background="new 0 0 500 500"
   xml:space="preserve"
   inkscape:version="0.48.2 r9819"
   sodipodi:docname="Toggle-write1-on.svg"><metadata
   id="metadata8156"><rdf:RDF><cc:Work
       rdf:about=""><dc:format>image/svg+xml</dc:format><dc:type
         rdf:resource="http://purl.org/dc/dcmitype/StillImage" /><dc:title></dc:title></cc:Work></rdf:RDF></metadata><defs
   id="defs8154"><linearGradient
     id="linearGradient3829"><stop
       style="stop-color:#0036ff;stop-opacity:1;"
       offset="0"
       id="stop3831" /><stop
       style="stop-color:#000000;stop-opacity:1;"
       offset="1"
       id="stop3833" /></linearGradient><linearGradient
     inkscape:collect="always"
     xlink:href="#linearGradient3829"
     id="linearGradient3835"
     x1="131.5"
     y1="222.5"
     x2="210.5"
     y2="276.5"
     gradientUnits="userSpaceOnUse" /><linearGradient
     gradientTransform="matrix(0.62827903,0,0,0.62827903,92.822952,22.225755)"
     id="SVGID_16_"
     gradientUnits="userSpaceOnUse"
     x1="234.2803"
     y1="358.45901"
     x2="239.1073"
     y2="491.66159"><stop
       offset="0"
       style="stop-color:#ECEFCB"
       id="stop182" /><stop
       offset="1"
       style="stop-color:#B7BA91"
       id="stop184" /></linearGradient><linearGradient
     id="SVGID_15_"
     gradientUnits="userSpaceOnUse"
     x1="209.4111"
     y1="493.68851"
     x2="245.3712"
     y2="206.0153"><stop
       offset="0"
       style="stop-color:#E5802A"
       id="stop165" /><stop
       offset="1"
       style="stop-color:#EBD300"
       id="stop167" /></linearGradient><radialGradient
     id="SVGID_14_"
     cx="234.89751"
     cy="141.2471"
     r="14.0725"
     gradientTransform="matrix(0.76656324,0.05937237,-0.05937237,0.76656324,73.19118,-25.293375)"
     gradientUnits="userSpaceOnUse"><stop
       offset="0.0121"
       style="stop-color:#FFFFFF"
       id="stop140" /><stop
       offset="1"
       style="stop-color:#C3C3C3"
       id="stop142" /></radialGradient><linearGradient
     id="SVGID_13_"
     gradientUnits="userSpaceOnUse"
     x1="247.0732"
     y1="160.957"
     x2="252.0761"
     y2="139.6413"
     gradientTransform="matrix(0.62758792,0.02946629,-0.02946629,0.62758792,101.82845,15.024044)"><stop
       offset="0"
       style="stop-color:#2E2B22"
       id="stop129" /><stop
       offset="1"
       style="stop-color:#5C636A"
       id="stop131" /></linearGradient><linearGradient
     id="SVGID_12_"
     gradientUnits="userSpaceOnUse"
     x1="245.5479"
     y1="162.3564"
     x2="248.2691"
     y2="134.64571"
     gradientTransform="matrix(0.62639419,0.04850314,-0.04850314,0.62639419,104.75711,10.760354)"><stop
       offset="0"
       style="stop-color:#E5802A"
       id="stop120" /><stop
       offset="1"
       style="stop-color:#EBD300"
       id="stop122" /></linearGradient><radialGradient
     id="SVGID_11_"
     cx="270.31451"
     cy="149.873"
     r="15.2679"
     gradientTransform="matrix(1.2151,0.1452,-0.1452,1.2151,-21.514,-87.9268)"
     gradientUnits="userSpaceOnUse"><stop
       offset="0.0121"
       style="stop-color:#FFFFFF"
       id="stop107" /><stop
       offset="1"
       style="stop-color:#C3C3C3"
       id="stop109" /></radialGradient><linearGradient
     id="SVGID_10_"
     gradientUnits="userSpaceOnUse"
     x1="243.02251"
     y1="175.77541"
     x2="245.8082"
     y2="150.0024"
     gradientTransform="matrix(0.62639419,0.04850314,-0.04850314,0.62639419,104.75711,10.760354)"><stop
       offset="0"
       style="stop-color:#FFFFFF"
       id="stop98" /><stop
       offset="1"
       style="stop-color:#C3C3C3"
       id="stop100" /></linearGradient><linearGradient
     id="SVGID_9_"
     gradientUnits="userSpaceOnUse"
     x1="236.62601"
     y1="230.0264"
     x2="242.2308"
     y2="166.0127"
     gradientTransform="matrix(0.62639419,0.04850314,-0.04850314,0.62639419,104.75711,10.760354)"><stop
       offset="0"
       style="stop-color:#E5802A"
       id="stop87" /><stop
       offset="1"
       style="stop-color:#EBD300"
       id="stop89" /></linearGradient><linearGradient
     id="SVGID_8_"
     gradientUnits="userSpaceOnUse"
     x1="240.2197"
     y1="276.25201"
     x2="240.2197"
     y2="127.5594"
     gradientTransform="matrix(0.62639419,0.04850314,-0.04850314,0.62639419,104.75711,10.760354)"><stop
       offset="0"
       style="stop-color:#E5802A"
       id="stop80" /><stop
       offset="1"
       style="stop-color:#EBD300"
       id="stop82" /></linearGradient><linearGradient
     gradientTransform="matrix(0.62827903,0,0,0.62827903,92.822952,22.225755)"
     id="SVGID_7_"
     gradientUnits="userSpaceOnUse"
     x1="232.99899"
     y1="422.90039"
     x2="232.99899"
     y2="127.0979"><stop
       offset="0"
       style="stop-color:#E5802A"
       id="stop63" /><stop
       offset="1"
       style="stop-color:#EBD300"
       id="stop65" /></linearGradient><linearGradient
     id="SVGID_6_"
     gradientUnits="userSpaceOnUse"
     x1="404.5"
     y1="265.7305"
     x2="401.81091"
     y2="226.11189"
     gradientTransform="matrix(-0.6077343,-0.15933156,-0.15933156,0.6077343,438.78863,67.038196)"><stop
       offset="0"
       style="stop-color:#E5802A"
       id="stop54" /><stop
       offset="1"
       style="stop-color:#EBD300"
       id="stop56" /></linearGradient><linearGradient
     id="SVGID_5_"
     gradientUnits="userSpaceOnUse"
     x1="374.94531"
     y1="280.082"
     x2="368.97961"
     y2="192.1873"
     gradientTransform="matrix(-0.6077343,-0.15933156,-0.15933156,0.6077343,438.78863,67.038196)"><stop
       offset="0"
       style="stop-color:#E5802A"
       id="stop47" /><stop
       offset="1"
       style="stop-color:#EBD300"
       id="stop49" /></linearGradient><linearGradient
     id="SVGID_4_"
     gradientUnits="userSpaceOnUse"
     x1="391.02051"
     y1="266.43259"
     x2="388.33151"
     y2="226.8148"
     gradientTransform="matrix(0.62639419,0.04850314,-0.04850314,0.62639419,104.75711,10.760354)"><stop
       offset="0"
       style="stop-color:#E5802A"
       id="stop38" /><stop
       offset="1"
       style="stop-color:#EBD300"
       id="stop40" /></linearGradient><linearGradient
     id="SVGID_3_"
     gradientUnits="userSpaceOnUse"
     x1="361.46481"
     y1="280.78519"
     x2="355.49921"
     y2="192.8913"
     gradientTransform="matrix(0.62639419,0.04850314,-0.04850314,0.62639419,104.75711,10.760354)"><stop
       offset="0"
       style="stop-color:#E5802A"
       id="stop31" /><stop
       offset="1"
       style="stop-color:#EBD300"
       id="stop33" /></linearGradient><linearGradient
     id="SVGID_2_"
     gradientUnits="userSpaceOnUse"
     x1="102.3818"
     y1="438.63959"
     x2="102.3818"
     y2="377.16479"
     gradientTransform="matrix(-0.54641427,0.3100557,0.3100557,0.54641427,258.73794,16.304037)"><stop
       offset="0"
       style="stop-color:#E5802A"
       id="stop24" /><stop
       offset="1"
       style="stop-color:#EBD300"
       id="stop26" /></linearGradient><linearGradient
     id="SVGID_1_"
     gradientUnits="userSpaceOnUse"
     x1="130.4951"
     y1="457.78421"
     x2="130.4951"
     y2="396.31049"><stop
       offset="0"
       style="stop-color:#E5802A"
       id="stop17" /><stop
       offset="1"
       style="stop-color:#EBD300"
       id="stop19" /></linearGradient><linearGradient
     gradientTransform="matrix(0.62827903,0,0,0.62827903,92.822952,22.225755)"
     y2="396.31049"
     x2="130.4951"
     y1="457.78421"
     x1="130.4951"
     gradientUnits="userSpaceOnUse"
     id="linearGradient4039"
     xlink:href="#SVGID_1_"
     inkscape:collect="always" /><marker
     inkscape:stockid="TriangleInM"
     orient="auto"
     refY="0"
     refX="0"
     id="TriangleInM"
     style="overflow:visible"><path
       inkscape:connector-curvature="0"
       id="path3961"
       d="m 5.77,0 -8.65,5 0,-10 8.65,5 z"
       style="fill-rule:evenodd;stroke:#000000;stroke-width:1pt;marker-start:none"
       transform="scale(-0.4,-0.4)" /></marker><inkscape:path-effect
     effect="spiro"
     id="path-effect7595"
     is_visible="true" /><inkscape:path-effect
     effect="spiro"
     id="path-effect7595-6"
     is_visible="true" /><inkscape:path-effect
     effect="spiro"
     id="path-effect7595-8"
     is_visible="true" /></defs><sodipodi:namedview
   pagecolor="#ffffff"
   bordercolor="#666666"
   borderopacity="1"
   objecttolerance="10"
   gridtolerance="10"
   guidetolerance="10"
   inkscape:pageopacity="0"
   inkscape:pageshadow="2"
   inkscape:window-width="1366"
   inkscape:window-height="716"
   id="namedview8152"
   showgrid="false"
   inkscape:zoom="4"
   inkscape:cx="27.33377"
   inkscape:cy="52.80459"
   inkscape:window-x="-8"
   inkscape:window-y="-8"
   inkscape:window-maximized="1"
   inkscape:current-layer="Layer_1"
   borderlayer="true"
   inkscape:showpageshadow="false" />
<g
   id="max_width__x2F__height"
   display="none"
   style="display:none"
   transform="translate(0,-436)">
	<path
   display="inline"
   d="M 499.001,1 V 499 H 1 V 1 h 498.001 m 1,-1 H 0 V 500 H 500.001 V 0 l 0,0 z"
   id="path8137"
   inkscape:connector-curvature="0"
   style="display:inline" />
</g>

<path
   style="fill:#f5f5f5;fill-opacity:1;stroke:none"
   d="m 10,0 44,0 c 5.54,0 10,4.46 10,10 l 0,44 c 0,5.54 -4.46,10 -10,10 L 10,64 C 4.46,64 0,59.54 0,54 L 0,10 C 0,4.46 4.46,0 10,0 z"
   id="rect3543" /><path
   style="fill:#2e3436;fill-opacity:1;fill-rule:evenodd"
   d="m 16.67362,50.466821 c -1.837064,-0.527598 -4.612986,-2.979453 -5.648326,-4.98893 -0.327356,-0.635358 -0.732608,-1.900983 -0.900562,-2.8125 -0.7872666,-4.272653 1.4678,-8.587401 5.555781,-10.630189 1.354696,-0.67695 1.815825,-0.777213 3.577706,-0.777903 1.337568,-5.25e-4 2.631821,0.179783 3.821472,0.532382 l 1.798902,0.533173 4.763602,-3.567631 c 2.61998,-1.962197 4.76359,-3.689823 4.76359,-3.83917 0,-0.149346 -0.18998,-1.155665 -0.42219,-2.236263 -0.74695,-3.47598 0.17879,-6.654482 2.66109,-9.13679 0.68546,-0.685456 1.97644,-1.605738 2.86885,-2.045069 1.55578,-0.765907 1.72329,-0.794567 4.06991,-0.696304 1.97379,0.08265 2.72395,0.230092 3.87686,0.761987 1.9874,0.916885 3.78086,2.673725 4.76016,4.66297 0.75843,1.540581 0.81032,1.814776 0.81032,4.281507 0,2.466731 -0.0519,2.740926 -0.81032,4.281507 -1.01024,2.052087 -2.79869,3.765889 -4.94593,4.739497 -1.36418,0.618547 -1.92368,0.728996 -3.69288,0.728996 -1.15666,0 -2.66693,-0.172781 -3.39175,-0.388028 l -1.30663,-0.388029 -1.30124,0.94645 c -0.71569,0.520547 -3.70559,2.728936 -6.64424,4.90753 -2.938652,2.178594 -5.425099,3.867929 -5.525441,3.754079 -0.269448,-0.305727 -2.873708,-3.899995 -3.118361,-4.303806 -0.142566,-0.235312 -0.01772,-0.49473 0.388341,-0.806941 l 0.598455,-0.460137 -0.9375,-0.0056 -0.9375,-0.0056 0.04001,1.4375 c 0.02544,0.913847 0.07715,1.136067 0.141957,0.610025 l 0.101947,-0.827474 1.454872,1.952474 c 0.80018,1.073862 1.690963,2.16535 1.979517,2.42553 0.516483,0.465697 0.539283,0.463437 1.465671,-0.145223 0.517565,-0.340052 1.239447,-0.811812 1.604183,-1.048357 l 0.663159,-0.430078 0.42655,1.284218 c 0.36751,1.106485 0.38727,1.548277 0.14277,3.19218 -0.55138,3.707227 -2.400411,6.329122 -5.588121,7.92387 -1.633166,0.81704 -1.901464,0.873832 -4.028603,0.852787 -1.253401,-0.0124 -2.664637,-0.133325 -3.13608,-0.268722 l 0,0 z"
   id="path3101"
   inkscape:connector-curvature="0" /></svg>